<svg width="20" height="12" viewBox="0 0 20 12" fill="none" xmlns="http://www.w3.org/2000/svg">
<path d="M12.2561 0.260404C12.8143 0.339336 13.361 0.479547 13.9011 0.645527C14.844 0.93589 15.7338 1.33928 16.5706 1.86258C16.6288 1.8987 16.7065 1.92163 16.7751 1.92163C17.758 1.92568 18.7405 1.92426 19.7226 1.92508C19.8017 1.92508 19.8805 1.93339 19.9594 1.93786C19.9594 1.95714 19.9622 1.96525 19.959 1.96972C19.9131 2.04033 19.8667 2.10993 19.8206 2.18034C19.4872 2.69167 19.2023 3.22654 19.0341 3.81782C19.0159 3.88133 19.012 3.93449 19.055 3.99678C19.93 5.2532 20.2092 6.63258 19.8435 8.1195C19.5229 9.4236 18.7754 10.4404 17.6395 11.1603C16.8277 11.6751 15.9308 11.9202 14.9727 11.9255C14.5701 11.9279 14.1696 11.8737 13.7763 11.7719C12.8182 11.5233 11.9968 11.0457 11.3199 10.3223C11.2306 10.2273 11.1466 10.1281 11.0514 10.0208C10.6935 10.5542 10.3413 11.0789 9.98049 11.6175C9.62114 11.0806 9.27376 10.5609 8.92719 10.0433C8.90324 10.0559 8.89634 10.0573 8.89168 10.0618C8.88376 10.0682 8.87707 10.0762 8.87078 10.0837C8.05204 11.0505 7.02207 11.6432 5.76727 11.8415C5.06926 11.9521 4.37795 11.9123 3.70003 11.7254C2.73925 11.4614 1.92274 10.9546 1.26308 10.2066C0.61844 9.47535 0.21749 8.62637 0.0669313 7.66113C-0.105339 6.76021 0.10447 5.89155 0.15682 5.68073C0.308597 5.06794 0.573191 4.50528 0.936399 3.98786C0.961966 3.95113 0.970894 3.8862 0.958719 3.84237C0.810595 3.29918 0.555335 2.80509 0.256449 2.33191C0.180561 2.21158 0.0896572 2.10019 0.00565262 1.98473C0.00565262 1.97154 0.00565262 1.95795 0.00565262 1.94455C0.0224941 1.94658 0.0391327 1.94983 0.0555684 1.94983C1.06119 1.95024 2.06661 1.95064 3.07223 1.94861C3.11606 1.94861 3.16475 1.93055 3.20209 1.90661C3.90862 1.45331 4.66142 1.09416 5.45236 0.814551C6.02274 0.613264 6.60509 0.456212 7.199 0.341162C7.77405 0.229968 8.35214 0.151645 8.93632 0.113092C10.3605 0.00352068 11.4989 0.154283 12.2561 0.260404ZM10.9954 6.90184C10.9954 9.11011 12.7871 10.9142 14.9875 10.9057C17.1962 10.8977 18.9797 9.1444 18.9781 6.91178C18.9765 4.61099 17.1101 2.88139 14.9019 2.92623C12.7218 2.97148 11.0153 4.72868 10.9954 6.90184ZM5.00738 2.91101C2.85937 2.89235 0.986518 4.68505 1.02406 6.9686C1.05896 9.09814 2.81413 10.9034 5.05202 10.8841C7.24019 10.8655 8.99902 9.07866 9.00307 6.91483C9.00652 4.69175 7.22619 2.91101 5.00738 2.91101ZM5.20542 1.86928C6.41882 1.94334 7.4847 2.3662 8.38521 3.18514C9.2839 4.00247 9.81045 5.02209 10.0018 6.22108C10.1986 5.03629 10.7114 4.02621 11.5932 3.217C12.4765 2.40699 13.5282 1.98189 14.7217 1.892C13.3054 1.26237 11.812 0.994937 10.2747 0.965312C8.52766 0.931021 6.82829 1.18851 5.20542 1.86928Z" fill="#BABABA"/>
<path d="M14.9793 4.38244C16.3459 4.38021 17.4528 5.4812 17.4528 6.84638C17.4528 8.21683 16.3648 9.27622 15.0812 9.32512C13.6476 9.38011 12.5006 8.23793 12.501 6.85246C12.5022 5.45117 13.6574 4.35931 14.9793 4.38244ZM16.5912 6.85246C16.5906 5.96169 15.8705 5.23771 14.9858 5.23771C14.091 5.23771 13.3625 5.95783 13.3589 6.84597C13.3556 7.73025 14.0877 8.466 14.9742 8.46844C15.8622 8.47189 16.5916 7.74162 16.5912 6.85246Z" fill="#BABABA"/>
<path d="M4.95461 4.38246C6.3204 4.38104 7.4289 5.48405 7.42545 6.84903C7.42159 8.23064 6.33257 9.2669 5.07149 9.32433C3.63225 9.39007 2.471 8.24282 2.47364 6.84984C2.47648 5.4386 3.63956 4.35892 4.95461 4.38246ZM6.5647 6.847C6.56207 5.95075 5.83727 5.2363 4.9325 5.23793C4.05978 5.23955 3.3285 5.97611 3.33052 6.85207C3.33276 7.73818 4.06323 8.46683 4.95218 8.46926C5.83565 8.47129 6.56694 7.73554 6.5647 6.847Z" fill="#BABABA"/>
<path d="M14.9806 6.03247C15.4335 6.03207 15.8048 6.40359 15.8006 6.85385C15.7961 7.30512 15.4311 7.67076 14.9857 7.67097C14.5271 7.67097 14.1584 7.30857 14.1594 6.85953C14.1602 6.39365 14.5184 6.03288 14.9806 6.03247Z" fill="#BABABA"/>
<path d="M4.95035 6.02539C5.41015 6.02499 5.77964 6.39225 5.78147 6.85062C5.7833 7.30514 5.41035 7.67829 4.95279 7.67931C4.48427 7.68032 4.12289 7.31833 4.12329 6.84738C4.12329 6.38495 4.48386 6.026 4.95035 6.02539Z" fill="#BABABA"/>
</svg>
